# xmcd CD database file
#
# Track frame offsets:
#	150
#	50687
#	87340
#	105542
#	131467
#	152560
#	194115
#
# Disc length: 2812 seconds
#
# Revision: 1
# Processed by: cddbd v1.5.2PL0 Copyright (c) Steve Scherf et al.
# Submitted via: CDex 1.70beta2
#
DISCID=5b0afa07
DTITLE=Michel Petrucciani - The Michel Petrucciani Collection
DYEAR=1900
DGENRE=Jazz
TTITLE0=The Prayer
TTITLE1=Limbo
TTITLE2=She Did It Again
TTITLE3=Looking Up
TTITLE4=September Second
TTITLE5=Estate
TTITLE6=Lush Life
EXTD=
EXTT0=
EXTT1=
EXTT2=
EXTT3=
EXTT4=
EXTT5=
EXTT6=
PLAYORDER=
